<svg width="598px" height="112px" viewBox="0 0 598 112" version="1.1" xmlns="http://www.w3.org/2000/svg" xmlns:xlink="http://www.w3.org/1999/xlink">
    <!-- Generator: Sketch 49.3 (51167) - http://www.bohemiancoding.com/sketch -->
    <desc>Created with Sketch.</desc>
    <defs>
        <polygon id="path-1" points="0.252000641 0.470351678 28.3016727 0.470351678 28.3016727 60.2642685 0.252000641 60.2642685"></polygon>
        <polygon id="path-3" points="0 112 598 112 598 0 0 0"></polygon>
    </defs>
    <g id="Page-1" stroke="none" stroke-width="1" fill="none" fill-rule="evenodd">
        <g id="home" transform="translate(-1617.000000, -1087.000000)">
            <g id="logo" transform="translate(1617.000000, 1087.000000)">
                <g id="Page-1">
                    <path d="M557.679592,74.5735533 C556.528898,73.4372822 555.067885,72.4177853 553.296554,71.5142344 C551.526061,70.6106836 549.370606,69.6922254 546.832704,68.7588599 C545.297886,68.2354464 543.999581,67.7252838 542.937788,67.2300286 C541.875157,66.7347735 541.018846,66.2395183 540.369693,65.7434349 C539.719702,65.2481797 539.262611,64.7090307 538.997583,64.1259878 C538.731715,63.5437731 538.599201,62.8729425 538.599201,62.1143242 C538.599201,60.5995721 539.276869,59.4773802 540.635561,58.7485766 C541.992575,58.0206011 543.763068,57.6553711 545.947877,57.6553711 C548.367523,57.6553711 550.492785,57.8740122 552.322825,58.3112944 C554.152026,58.7485766 555.65749,59.2297526 556.838378,59.7531661 L558.786675,51.1855827 C557.547078,50.719314 555.687683,50.2389661 553.208491,49.7428828 C550.729298,49.2484558 548.13101,49 545.416981,49 C540.045117,49 535.794593,50.2099796 532.667086,52.6282825 C529.537063,55.0474136 527.973729,58.3551882 527.973729,62.5516063 C527.973729,64.7090307 528.312563,66.5302115 528.991909,68.0159771 C529.670416,69.5025708 530.599694,70.7705235 531.78142,71.8198351 C532.960631,72.8683184 534.362934,73.7867766 535.987494,74.5735533 C537.609536,75.3603299 539.395964,76.1040409 541.343422,76.8030298 C544.531316,77.9707719 546.818446,79.0474136 548.205654,80.0387522 C549.592022,81.0300908 550.287304,82.2831361 550.287304,83.7978881 C550.287304,85.4302426 549.636474,86.5822492 548.338168,87.2522516 C547.039024,87.922254 544.974148,88.2568412 542.141025,88.2568412 C539.307901,88.2568412 536.784257,87.9661479 534.570093,87.383105 C532.356768,86.8008903 530.452922,86.1880327 528.859395,85.5470168 L527,94.3771352 C528.003083,94.7854308 529.744222,95.3254081 532.223414,95.9945823 C534.702607,96.6645847 537.979403,97 542.052123,97 C548.13101,97 552.810109,95.8778081 556.086065,93.6342524 C559.362022,91.3915249 561,88.0829221 561,83.7101004 C561,81.6702785 560.734971,79.921978 560.203236,78.4643708 C559.67234,77.0075917 558.831126,75.7106525 557.679592,74.5735533" id="Fill-1" fill="#FFFFFF"></path>
                    <g id="Group-5" transform="translate(569.000000, 38.000000)">
                        <mask id="mask-2" fill="white">
                            <use xlink:href="#path-1"></use>
                        </mask>
                        <g id="Clip-4"></g>
                        <path d="M26.5917783,49.5650959 C25.7363856,49.9108105 24.5820914,50.2851304 23.1288958,50.6872381 C21.6748902,51.0901632 20.0070364,51.2903998 18.1253344,51.2903998 C15.3890497,51.2903998 13.4498355,50.5139722 12.3101219,48.961117 C11.1695983,47.4082617 10.6001465,44.8190799 10.6001465,41.1960235 L10.6001465,22.8175731 L26.5067251,22.8175731 L26.5067251,14.1027861 L10.6001465,14.1027861 L10.6001465,0.470351678 L0.252000641,2.19565557 L0.252000641,41.2818392 C0.252000641,44.2731287 0.509590495,46.9334149 1.02234011,49.2635151 C1.53508973,51.5927979 2.41883354,53.5771835 3.67357154,55.2166717 C4.92668948,56.8561599 6.6237044,58.1074343 8.76137618,58.9704949 C10.899858,59.8327382 13.5640499,60.2642685 16.7571921,60.2642685 C19.3792624,60.2642685 21.6594996,59.9904756 23.5987138,59.4445244 C25.5354979,58.8985732 27.105338,58.3665159 28.3017537,57.8483527 L26.5917783,49.5650959 Z" id="Fill-3" fill="#FFFFFF" mask="url(#mask-2)"></path>
                    </g>
                    <path d="M196.799021,81.2113185 C193.114054,84.8557094 187.527547,86.6779049 180.040338,86.6779049 C178.212514,86.6779049 176.768348,86.6642585 175.707004,86.6353602 C174.646498,86.6080674 173.790386,86.5655228 173.142857,86.508529 L173.142857,45.491471 C174.557703,45.3220951 176.914943,45.2378085 180.217089,45.2378085 C187.763773,45.2378085 193.335202,47.0166566 196.931374,50.5759583 C200.527547,54.1360626 202.32689,59.2494481 202.32689,65.9145093 C202.32689,72.4695966 200.482312,77.5677303 196.799021,81.2113185 M204.493137,43.1611479 C201.456537,40.7031908 197.815968,38.8954445 193.570591,37.7371062 C189.326052,36.5795705 184.639216,36 179.510084,36 C177.033894,36 174.203364,36.0842866 171.020169,36.2544652 C167.836974,36.4238411 164.829693,36.8195866 162,37.4408991 L162,94.4740116 C164.829693,95.0969296 167.806817,95.504716 170.931374,95.7029902 C174.056769,95.9004616 176.856305,96 179.332496,96 C184.520265,96 189.251498,95.3923339 193.527031,94.1778045 C197.800889,92.9640779 201.456537,91.098535 204.493137,88.5851896 C207.5289,86.0718443 209.871899,82.935581 211.52381,79.1780052 C213.174045,75.4212322 214,70.9997993 214,65.9145093 C214,60.7184427 213.174045,56.2416215 211.52381,52.483243 C209.871899,48.72647 207.5289,45.6183022 204.493137,43.1611479" id="Fill-6" fill="#FFFFFF"></path>
                    <path d="M249.508595,83.8225893 C247.595392,86.4985791 244.926807,87.8361607 241.499594,87.8361607 C238.073193,87.8361607 235.402985,86.4985791 233.491405,83.8225893 C231.57658,81.1465994 230.621601,77.5099978 230.621601,72.9127844 C230.621601,68.3742659 231.57658,64.7831321 233.491405,62.134423 C235.402985,59.4873672 238.073193,58.1638393 241.499594,58.1638393 C244.926807,58.1638393 247.595392,59.4873672 249.508595,62.134423 C251.420986,64.7831321 252.378399,68.3742659 252.378399,72.9127844 C252.378399,77.5099978 251.420986,81.1465994 249.508595,83.8225893 M257.004,55.5448909 C255.119195,53.4508896 252.848991,51.8363674 250.1942,50.7021511 C247.538597,49.5662815 244.639583,49 241.499594,49 C238.358794,49 235.474385,49.5662815 232.848803,50.7021511 C230.221597,51.8363674 227.951393,53.4508896 226.038191,55.5448909 C224.124988,57.6397189 222.640999,60.1569847 221.584599,63.0950347 C220.527388,66.0330848 220,69.3059435 220,72.9127844 C220,76.5212786 220.527388,79.8081911 221.584599,82.7743486 C222.640999,85.7421594 224.111195,88.2734788 225.996,90.3674802 C227.880805,92.4623082 230.135593,94.0925374 232.762798,95.2548611 C235.389192,96.4180115 238.301187,97 241.499594,97 C244.69719,97 247.624601,96.4180115 250.279393,95.2548611 C252.935808,94.0925374 255.2052,92.4623082 257.090005,90.3674802 C258.973999,88.2734788 260.430402,85.7421594 261.458403,82.7743486 C262.485594,79.8081911 263,76.5212786 263,72.9127844 C263,69.3059435 262.4718,66.0330848 261.415401,63.0950347 C260.35819,60.1569847 258.888805,57.6397189 257.004,55.5448909" id="Fill-8" fill="#FFFFFF"></path>
                    <path d="M298.999614,49.4732594 C298.029159,49.3304656 297.059564,49.2154146 296.090831,49.1289224 C295.120375,49.0432461 294.272195,49 293.54543,49 C289.666192,49 286.136558,49.3304656 282.953946,49.9905809 C279.773057,50.6506962 277.12088,51.3556896 275,52.1014812 L275,95 L285.999644,95 L285.999644,58.9066253 C286.544718,58.7344568 287.500534,58.5337295 288.86365,58.3028115 C290.226765,58.0743415 291.514104,57.9584745 292.727389,57.9584745 C294.848269,57.9584745 296.711681,58.1175876 298.317626,58.4317339 C299.922709,58.7483282 301.180771,59.050235 302.090088,59.3366386 L304,50.5503326 C303.454065,50.3773481 302.726439,50.1921242 301.817121,49.9905809 C300.908664,49.7898537 299.968347,49.6176851 298.999614,49.4732594" id="Fill-10" fill="#FFFFFF"></path>
                    <path d="M333.488692,88.0488329 C331.751131,88.4004295 329.206906,88.5758121 325.852613,88.5758121 C323.098213,88.5758121 320.913073,88.0928863 319.29549,87.1278659 C317.678759,86.1620143 316.870393,84.4231489 316.870393,81.9062825 C316.870393,80.6204198 317.169063,79.5523308 317.768104,78.703678 C318.367146,77.8558565 319.161046,77.1983792 320.148954,76.7295837 C321.136862,76.2616195 322.244749,75.939946 323.472614,75.7645633 C324.699628,75.5883494 325.912177,75.5002424 327.111111,75.5002424 C328.487886,75.5002424 329.745533,75.5883494 330.883201,75.7645633 C332.02087,75.939946 332.88965,76.1153287 333.488692,76.2907114 L333.488692,88.0488329 Z M339.912222,54.0021473 C338.443549,52.4228718 336.483049,51.1935305 334.02817,50.3157858 C331.571589,49.4388723 328.5483,49 324.954902,49 C321.959694,49 319.14573,49.2343977 316.511308,49.7015308 C313.874334,50.1711574 311.869587,50.6382905 310.491961,51.1062548 L311.839805,59.7049941 C313.155314,59.2378611 314.862242,58.8280806 316.959738,58.4773152 C319.055533,58.1257186 321.361503,57.9503359 323.876797,57.9503359 C325.732635,57.9503359 327.275337,58.1847337 328.504053,58.6526979 C329.730216,59.1214934 330.718124,59.7798019 331.467777,60.6276235 C332.215728,61.475445 332.739039,62.4562582 333.040262,63.5667382 C333.338931,64.6788807 333.488692,65.8483757 333.488692,67.0768858 L333.488692,68.8315439 C331.991088,68.4807786 330.58368,68.2322505 329.26647,68.0851285 C327.948408,67.9405001 326.691612,67.8665235 325.493529,67.8665235 C322.91782,67.8665235 320.448475,68.116714 318.082941,68.6121078 C315.715706,69.1099952 313.636079,69.9287248 311.839805,71.0691279 C310.04268,72.2095311 308.619105,73.6882316 307.572484,75.5002424 C306.524161,77.3147468 306,79.5373693 306,82.1697721 C306,84.920205 306.463747,87.2309344 307.392942,89.1027914 C308.320435,90.9754797 309.607864,92.4957401 311.255229,93.6652352 C312.902593,94.8363926 314.893726,95.6842142 317.229477,96.2095311 C319.565229,96.7365104 322.139236,97 324.954902,97 C329.206906,97 333.024094,96.7506407 336.40902,96.2535845 C339.791392,95.7573596 342.322003,95.3326176 344,94.9818522 L344,67.1641615 C344,64.474406 343.684312,62.0024243 343.056339,59.7490476 C342.427516,57.4981644 341.378342,55.5805915 339.912222,54.0021473 Z" id="Fill-12" fill="#FFFFFF"></path>
                    <polygon id="Fill-14" fill="#FFFFFF" points="366 96 376.448491 96 398 36 387.732701 36"></polygon>
                    <path d="M452.799021,81.2113185 C449.114054,84.8557094 443.527547,86.6779049 436.040338,86.6779049 C434.212514,86.6779049 432.768348,86.6642585 431.707004,86.6353602 C430.646498,86.6080674 429.790386,86.5655228 429.142857,86.508529 L429.142857,45.491471 C430.557703,45.3220951 432.914943,45.2378085 436.217089,45.2378085 C443.763773,45.2378085 449.335202,47.0166566 452.931374,50.5759583 C456.527547,54.1360626 458.32689,59.2494481 458.32689,65.9145093 C458.32689,72.4695966 456.482312,77.5677303 452.799021,81.2113185 M460.493137,43.1611479 C457.456537,40.7031908 453.815968,38.8954445 449.570591,37.7371062 C445.326052,36.5795705 440.639216,36 435.510084,36 C433.033894,36 430.203364,36.0842866 427.020169,36.2544652 C423.836974,36.4238411 420.829693,36.8195866 418,37.4408991 L418,94.4740116 C420.829693,95.0969296 423.806817,95.504716 426.931374,95.7029902 C430.056769,95.9004616 432.856305,96 435.332496,96 C440.520265,96 445.251498,95.3923339 449.527031,94.1778045 C453.800889,92.9640779 457.456537,91.098535 460.493137,88.5851896 C463.5289,86.0718443 465.871899,82.935581 467.52381,79.1780052 C469.174045,75.4212322 470,70.9997993 470,65.9145093 C470,60.7184427 469.174045,56.2416215 467.52381,52.483243 C465.871899,48.72647 463.5289,45.6183022 460.493137,43.1611479" id="Fill-16" fill="#FFFFFF"></path>
                    <path d="M506.430699,51 L506.430699,87.3699717 C505.731485,87.5426346 504.668184,87.6859773 503.241622,87.8008144 C501.814233,87.9156516 500.459661,87.9726629 499.179561,87.9726629 C495.626396,87.9726629 493.13736,86.9407578 491.710799,84.8769476 C490.282582,82.8139518 489.570128,79.3745397 489.570128,74.5595255 L489.570128,51 L479,51 L479,76.1933074 C479,79.2320113 479.319404,82.026381 479.961523,84.5764164 C480.601158,87.1272663 481.66446,89.3197592 483.148945,91.1538952 C484.634257,92.9888456 486.614398,94.4206445 489.090194,95.4525496 C491.564336,96.4852691 494.63674,97 498.306578,97 C502.207282,97 505.789408,96.7279745 509.051303,96.1839235 C512.311543,95.6398725 514.961936,95.1088527 517,94.5924929 L517,51 L506.430699,51 Z" id="Fill-18" fill="#FFFFFF"></path>
                    <mask id="mask-4" fill="white">
                        <use xlink:href="#path-3"></use>
                    </mask>
                    <g id="Clip-21"></g>
                    <path d="M81.3520088,90.5952542 L98.2645515,90.5952542 L98.2645515,73.7448136 L81.3520088,73.7448136 L81.3520088,90.5952542 Z M17.6964381,91.2517966 L53.3179504,91.2517966 L53.3179504,73.0890847 L17.6964381,73.0890847 L17.6964381,91.2517966 Z M104.436094,27.4467797 C106.448093,27.4467797 108.095089,30.2657627 108.095089,33.712 C108.095089,37.1574237 111.673245,39.9764068 116.047545,39.9764068 C120.421028,39.9764068 124,36.4105763 124,32.0531525 C124,27.6957288 120.817058,24.1298983 116.926977,24.1298983 C113.036897,24.1298983 109.853955,22.651661 109.853955,20.8447458 C109.853955,19.0370169 107.620669,16 104.891734,16 C102.161981,16 99.9295126,18.7514576 99.9295126,20.2077288 C99.9295126,21.6648136 94.5851426,22.8574915 88.0526811,22.8574915 C81.5202197,22.8574915 76.1758496,27.328 76.1758496,32.792678 C76.1758496,38.2573559 71.0348025,42.728678 64.7505746,42.728678 C58.4671632,42.728678 53.326116,41.7393898 53.326116,40.5288136 C53.326116,39.3198644 56.3775921,38.3305763 60.1059945,38.3305763 C63.8335803,38.3305763 66.8850563,34.6866441 66.8850563,30.2315932 C66.8850563,25.7773559 63.2268779,22.1326102 58.7562246,22.1326102 C54.2847547,22.1326102 50.6273929,24.112 50.6273929,26.5298983 C50.6273929,28.9486102 45.3793767,30.928 38.9644995,30.928 C32.5512555,30.928 27.3032392,34.432 27.3032392,38.7145763 C27.3032392,42.9979661 25.6505265,46.5019661 23.6295462,46.5019661 C21.608566,46.5019661 19.9558532,42.3715254 19.9558532,37.3233898 C19.9558532,32.2752542 15.514596,28.1448136 10.0853039,28.1448136 C4.65682846,28.1448136 0.214754671,32.2752542 0.214754671,37.3233898 C0.214754671,42.3715254 0.166577767,46.5019661 0.106969056,46.5019661 C0.0481769033,46.5019661 0,53.824 0,62.7731525 L0,95.7288136 C0,104.677966 7.34901914,112 16.3311537,112 L105.610304,112 C114.592439,112 121.941458,104.677966 121.941458,95.7288136 L121.941458,79.4202034 C121.941458,70.4710508 122.05496,81.7201356 122.194591,81.7201356 C122.334222,81.7201356 122.44854,74.3981017 122.44854,65.4489492 L122.44854,62.9155254 C122.44854,53.9663729 117.572058,46.6126102 111.61282,46.5735593 C105.653582,46.5336949 100.777916,42.215322 100.777916,36.9743729 C100.777916,31.7342373 102.424096,27.4467797 104.436094,27.4467797 Z" id="Fill-20" fill="#FFFFFF" mask="url(#mask-4)"></path>
                    <path d="M17.5399163,50.8062757 L22.2891783,50.0976678 C31.9350621,48.6550276 34.9028363,41.219566 28.8833175,33.5725063 L10.9449539,10.7887956 C4.92625829,3.14255598 0,4.8369817 0,14.5557352 L0,35.7582007 C0,45.476134 7.89238606,52.248916 17.5399163,50.8062757" id="Fill-22" fill="#FFFFFF" mask="url(#mask-4)"></path>
                    <path d="M129,6.5 C129,10.0906 126.0906,13 122.5,13 C118.9094,13 116,10.0906 116,6.5 C116,2.9094 118.9094,0 122.5,0 C126.0906,0 129,2.9094 129,6.5" id="Fill-23" fill="#FFFFFF" mask="url(#mask-4)"></path>
                </g>
            </g>
        </g>
    </g>
</svg>